<mxfile host="app.diagrams.net" modified="2024-06-10T05:51:48.968Z" agent="Mozilla/5.0 (iPad; CPU OS 17_5 like Mac OS X) AppleWebKit/605.1.15 (KHTML, like Gecko) CriOS/125.0.6422.145 Mobile/15E148 Safari/604.1" version="24.5.2" etag="-aBBr6X0N_l70N67lzCk" type="github">
  <diagram name="Page-1" id="9sSi2qS_O3QeO8CR4Fty">
    <mxGraphModel>
      <root>
        <mxCell id="0" />
        <mxCell id="1" parent="0" />
      </root>
    </mxGraphModel>
  </diagram>
</mxfile>
